<?xml version="1.0" encoding="UTF-8" standalone="no"?>
<!-- Created with Inkscape (http://www.inkscape.org/) -->

<svg
   width="175.66187mm"
   height="134.40472mm"
   viewBox="0 0 175.66187 134.40472"
   version="1.1"
   id="svg1"
   xml:space="preserve"
   inkscape:version="1.4.3 (0d15f75, 2025-12-25)"
   sodipodi:docname="customstars.svg"
   xmlns:inkscape="http://www.inkscape.org/namespaces/inkscape"
   xmlns:sodipodi="http://sodipodi.sourceforge.net/DTD/sodipodi-0.dtd"
   xmlns="http://www.w3.org/2000/svg"
   xmlns:svg="http://www.w3.org/2000/svg"><sodipodi:namedview
     id="namedview1"
     pagecolor="#ffffff"
     bordercolor="#000000"
     borderopacity="0.25"
     inkscape:showpageshadow="2"
     inkscape:pageopacity="0.0"
     inkscape:pagecheckerboard="0"
     inkscape:deskcolor="#d1d1d1"
     inkscape:document-units="mm"
     inkscape:zoom="1.4699074"
     inkscape:cx="331.9937"
     inkscape:cy="94.903937"
     inkscape:window-width="1920"
     inkscape:window-height="1027"
     inkscape:window-x="1072"
     inkscape:window-y="509"
     inkscape:window-maximized="1"
     inkscape:current-layer="layer1" /><defs
     id="defs1" /><g
     inkscape:label="Layer 1"
     inkscape:groupmode="layer"
     id="layer1"
     transform="translate(561.90359,-657.89976)"><path
       style="fill:#d3d3d3;fill-opacity:0;stroke:#ffffff;stroke-width:0.499999"
       d="m -537.72507,658.14976 c -1.42667,-0.007 -2.07735,14.5178 -7.82375,21.84481 -5.7464,7.32701 -16.11295,7.45873 -16.10475,8.19309 0.008,0.73436 6.87578,1.38236 11.64563,9.98254 2.62807,4.7385 0.91131,28.03401 2.10052,28.20122 1.1892,0.16721 3.65398,-15.89389 9.44377,-23.34825 5.78979,-7.45437 14.85997,-5.59907 14.99386,-7.70788 0.0669,-1.0544 -6.26947,-5.89146 -9.67169,-14.91836 -3.40222,-9.02691 -3.87026,-22.24367 -4.58359,-22.24717 z"
       id="path1"
       sodipodi:nodetypes="sssssssss" /><path
       style="fill:#d3d3d3;fill-opacity:0;stroke:#000000;stroke-width:0.452754"
       d="m -491.57129,782.86646 c 1.67258,-1.04275 7.78752,-32.28834 6.85926,-33.72511 -0.92826,-1.43676 -29.08828,-19.74779 -31.24864,-19.0664 -2.16035,0.68138 -5.71221,29.11169 -5.04536,31.2204 0.66685,2.10869 27.76216,22.61387 29.43474,21.57111 z"
       id="path2"
       sodipodi:nodetypes="zzzzz" /><path
       style="fill:#d3d3d3;fill-opacity:0;stroke:#000000;stroke-width:0.499999"
       d="m -412.50352,669.248 c -1.21657,-0.33706 -7.41954,9.75225 -14.39846,16.20657 -6.97892,6.45432 -14.73379,9.27364 -14.73414,10.59662 -3.5e-4,1.32298 6.70023,10.24366 10.1598,21.5331 3.45957,11.28944 3.67813,24.94764 5.11372,25.30565 1.43559,0.35801 6.35975,-12.84007 13.80865,-22.83787 7.44891,-9.99781 17.42257,-16.79533 17.75659,-17.89148 0.33402,-1.09615 -6.36424,-8.16577 -10.57014,-16.03561 -4.2059,-7.86985 -5.91946,-16.53992 -7.13602,-16.87698 z"
       id="path3"
       sodipodi:nodetypes="sssssssss" /><path
       style="fill:#d3d3d3;fill-opacity:0;stroke:#000000;stroke-width:0.499999"
       d="m -499.75923,702.82717 c -0.30452,-0.23374 -4.94095,4.78114 -4.94095,4.78114 0,0 -6.3735,-2.10323 -6.49115,-1.84742 -0.11765,0.25581 4.08938,5.14092 4.08938,5.14092 0,0 -3.7608,8.53497 -3.50228,8.73452 0.25852,0.19955 7.36004,-6.76146 7.36004,-6.76146 0,0 6.66447,3.46926 6.80724,3.24694 0.14277,-0.22232 -4.17915,-6.1264 -4.17915,-6.1264 0,0 1.16139,-6.9345 0.85687,-7.16824 z"
       id="path4"
       sodipodi:nodetypes="zczczczcz" /><path
       style="fill:#d3d3d3;fill-opacity:0;stroke:#000000;stroke-width:0.499999"
       d="m -451.56359,731.24976 c -0.49051,-0.10542 -3.78,8.73 -3.78,8.73 0,0 -7.5579,-0.84473 -7.56,-0.18 -0.002,0.66473 6.84,5.22 6.84,5.22 0,0 0.63453,9.53 1.26,9.54 0.62547,0.01 3.6,-8.46 3.6,-8.46 0,0 6.21134,-0.66827 6.3,-1.26 0.0887,-0.59173 -5.76,-4.32 -5.76,-4.32 0,0 -0.40949,-9.16458 -0.9,-9.27 z"
       id="path5"
       sodipodi:nodetypes="zczczczcz" /><path
       style="fill:#d3d3d3;fill-opacity:0;stroke:#000000;stroke-width:0.499999"
       d="m -457.46161,669.49089 c -0.15383,-0.12558 -7.50948,7.064 -7.50948,7.064 0,0 -2.25852,-3.14651 -2.35467,-3.11834 -0.0962,0.0282 -0.50911,4.13658 -0.50911,4.13658 0,0 -7.74614,-4.40389 -7.8161,-4.31979 -0.07,0.0841 5.65234,7.50177 5.65234,7.50177 0,0 -3.88345,1.05856 -3.88201,1.1455 0.001,0.0869 3.81838,1.90919 3.81838,1.90919 0,0 -4.12934,8.68346 -3.94566,8.90955 0.18368,0.22609 7.31855,-6.68216 7.31855,-6.68216 0,0 2.17688,3.09215 2.35467,3.0547 0.17779,-0.0375 1.27279,-3.94566 1.27279,-3.94566 0,0 6.88306,4.52476 7.00036,4.39114 0.1173,-0.13362 -4.77297,-7.3822 -4.77297,-7.3822 0,0 4.15492,-2.52866 4.13657,-2.60922 -0.0183,-0.0806 -4.96388,-0.50912 -4.96388,-0.50912 0,0 4.35405,-9.42036 4.20022,-9.54594 z"
       id="path6"
       sodipodi:nodetypes="zczczczczczczczcz" /></g></svg>
