<?xml version="1.0" encoding="UTF-8" standalone="no"?>
<!-- Created with Inkscape (http://www.inkscape.org/) -->

<svg
   width="2000mm"
   height="297mm"
   viewBox="0 0 210 297"
   version="1.1"
   id="svg1"
   xml:space="preserve"
   inkscape:version="1.4.3 (0d15f75, 2025-12-25)"
   sodipodi:docname="portfoliologo.svg"
   xmlns:inkscape="http://www.inkscape.org/namespaces/inkscape"
   xmlns:sodipodi="http://sodipodi.sourceforge.net/DTD/sodipodi-0.dtd"
   xmlns="http://www.w3.org/2000/svg"
   xmlns:svg="http://www.w3.org/2000/svg"><sodipodi:namedview
     id="namedview1"
     pagecolor="#ffffff"
     bordercolor="#000000"
     borderopacity="0.25"
     inkscape:showpageshadow="2"
     inkscape:pageopacity="0.0"
     inkscape:pagecheckerboard="0"
     inkscape:deskcolor="#d1d1d1"
     inkscape:document-units="mm"
     inkscape:zoom="0.51969075"
     inkscape:cx="323.26918"
     inkscape:cy="453.15411"
     inkscape:window-width="1920"
     inkscape:window-height="1027"
     inkscape:window-x="1072"
     inkscape:window-y="509"
     inkscape:window-maximized="1"
     inkscape:current-layer="svg1" /><defs
     id="defs1" /><g
     id="g6"
     style="display:inline;fill:#d3d3d3;fill-opacity:1"><path
       id="path1"
       style="display:inline;fill:#d3d3d3;fill-opacity:1;stroke:#000000;stroke-width:2;stroke-dasharray:none;stroke-opacity:1"
       d="m 122.8867,22.480908 c -27.754046,-0.446052 -63.857587,5.772953 -65.865374,7.048039 -4.015574,2.550171 -46.704741,-5.735411 -85.277482,-4.327901 -38.572742,1.40751 -81.936254,3.483691 -86.804524,18.073832 -4.86826,14.590141 -5.60017,38.183716 -5.60017,38.183716 l -1.20343,38.168946 c 0,0 0.38588,29.7652 1.40412,36.38372 1.01823,6.61851 5.70722,27.93517 7.54919,33.56569 2.61618,7.99713 10.86355,23.11294 15.247903,29.46697 3.232794,4.68513 17.222499,17.69563 17.222499,17.69563 l 25.455811,16.29152 c 0,0 27.492479,8.14566 29.528946,8.65477 2.036468,0.50912 34.1105799,5.60069 34.1105799,5.60069 0,0 20.6256191,1.42482 23.9902671,-1.25471 3.364648,-2.67953 2.09858,-21.68136 2.09858,-21.68136 0,0 0.04987,-11.60633 -1.502049,-12.33706 -5.049605,-2.37763 -23.8859593,-1.67376 -31.019698,-3.86179 -16.836168,-5.16393 -28.798617,-8.25895 -39.127384,-13.85188 -10.044468,-5.43898 -28.28908,-13.55436 -35.101472,-23.97719 -4.95061,-9.39237 -5.124136,-33.26018 -5.124136,-33.26018 0,0 74.5440011,5.25904 76.81151041,0.52405 2.26750929,-4.73499 2.30304329,-29.29119 -0.0946096,-33.84547 -2.39765291,-4.55428 -82.68354681,-2.37836 -82.68354681,-2.37836 0,0 -1.349333,-18.85959 0.337624,-39.943466 1.155742,-14.444661 3.032341,-16.668948 6.070126,-19.579539 6.378877,-6.11179 25.845308,-5.158668 42.393701,-5.338002 14.138322,-0.153216 30.7635004,-0.443864 45.648924,0.130816 14.062311,0.542903 28.321214,0.895643 33.768961,4.271261 8.155398,5.053376 10.676989,10.924848 10.937894,25.255303 0.516587,28.374107 -1.590514,164.991177 1.311048,179.399937 0.886894,4.40419 10.624434,2.0264 23.823096,2.09066 9.428103,0.0459 15.076216,0.23518 18.233036,-2.10917 3.156819,-2.34435 1.378519,-94.93923 1.378519,-94.93923 0,0 14.87709,4.87401 28.00119,23.37253 6.541,9.21959 35.38506,56.78815 40.72951,58.03936 5.34445,1.25121 31.12069,-15.43865 33.2853,-18.96865 2.16461,-3.53 -25.16312,-45.22572 -35.69963,-58.10116 -10.53651,-12.87544 -27.92033,-27.9505 -28.35092,-29.02697 l -23.4888,-21.51093 c 1.94269,1.46261 15.73694,3.07346 22.99591,1.82675 17.25086,-2.9628 19.8033,-1.69827 26.10127,-4.97098 10.51962,-5.46647 15.47913,-10.59855 20.68482,-19.18302 7.58204,-12.503203 6.4664,-27.343586 3.24769,-43.318729 -3.21871,-15.975143 -8.462,-19.328515 -20.14628,-27.194246 -11.68428,-7.865733 -17.52452,-8.638146 -45.27856,-9.084197 z m 10.87107,31.821279 c 2.11518,0.08776 12.20885,1.780452 14.08965,2.613387 9.82191,4.349748 10.48773,8.251508 10.48773,8.251508 0,0 3.97387,12.329224 2.54558,17.946191 -1.42829,5.616967 -3.16401,9.447092 -9.92756,13.364559 -6.76355,3.917468 -25.45591,4.072728 -30.03796,3.563608 -4.47248,-0.496942 -11.6866,-2.489349 -16.25708,-5.675043 -4.57047,-3.185694 -9.025188,-8.467803 -9.962202,-12.907808 -0.727852,-3.448897 -0.603658,-9.197222 1.781805,-15.782293 2.203005,-6.081395 10.398977,-9.011641 15.935627,-9.902596 8.50902,-1.369266 14.99888,-1.734788 21.34441,-1.471513 z"
       sodipodi:nodetypes="ssssccsssccscscssssczzcssssssssscssssccsssssssscsssssssss" /><path
       id="path2"
       style="fill:#d3d3d3;fill-opacity:1;stroke:#000000;stroke-width:2;stroke-dasharray:none"
       d="m 213.71257,25.971465 c -1.53251,0.60588 11.40572,38.541403 13.29252,46.795873 1.8868,8.25447 2.22851,18.09505 2.91129,29.161252 0.68278,11.06621 -1.27115,23.70236 -2.79835,31.7764 -1.5272,8.07404 -6.8906,21.37445 -14.63076,34.76975 -7.74016,13.39529 -14.6437,20.62775 -14.16827,21.87118 0.615,1.60848 12.49565,29.82598 16.20474,29.47974 4.23759,-0.39558 14.57895,-14.90597 14.57895,-14.90597 0,0 12.31293,-15.63918 17.57515,-25.11392 5.26222,-9.47474 10.93546,-23.76164 10.93546,-23.76164 0,0 8.31755,1.04157 17.919,-3.66375 12.13901,-4.43888 22.88705,-10.64415 32.56753,-26.62033 4.60994,-7.60803 5.24412,-19.27216 6.18273,-25.72088 2.30146,-15.812261 -2.33934,-29.58736 -5.24882,-34.872351 -1.94526,-3.533514 -8.36056,-11.51818 -20.61922,-12.473056 -10.42068,-0.811709 -14.0983,-0.191789 -32.58334,7.891185 0,0 -5.45017,-32.638325 -10.9461,-35.129036 -2.74797,-1.245356 -20.38625,-3.748822 -31.17251,0.515553 z m 67.13827,48.601051 c 3.30008,0.121715 7.79152,3.178922 8.32756,4.849836 0.77969,2.43042 3.7233,10.072668 1.58672,19.562422 -2.13658,9.489756 -5.05726,14.670836 -10.78399,20.956136 -6.82498,7.49066 -21.95014,12.85615 -20.33137,9.88394 2.42997,-4.46165 5.11161,-19.53161 4.58195,-27.36114 -0.87655,-12.957309 -2.20378,-20.873874 -2.20378,-20.873874 0,0 5.08372,-3.430732 13.12641,-5.985858 2.51334,-0.798477 4.19646,-1.086787 5.6965,-1.031462 z"
       sodipodi:nodetypes="szzzzsscscssssscsssssssscss" /></g></svg>
